<?xml version="1.0" encoding="UTF-8"?>
<svg xmlns="http://www.w3.org/2000/svg" version="1.1" width="500" height="500" viewBox="0 0 500 500"><rect x="0" y="0" width="500" height="500" fill="#ffffff"/><g transform="scale(20)"><g transform="translate(0,0)"><path fill-rule="evenodd" d="M9 0L9 1L8 1L8 2L9 2L9 3L8 3L8 4L10 4L10 7L11 7L11 4L12 4L12 5L13 5L13 6L12 6L12 9L13 9L13 6L14 6L14 9L17 9L17 10L11 10L11 11L10 11L10 9L11 9L11 8L6 8L6 9L5 9L5 8L0 8L0 10L1 10L1 11L2 11L2 9L3 9L3 10L4 10L4 9L5 9L5 11L4 11L4 12L3 12L3 13L4 13L4 14L5 14L5 11L8 11L8 13L7 13L7 12L6 12L6 13L7 13L7 14L6 14L6 15L5 15L5 16L4 16L4 17L7 17L7 16L6 16L6 15L7 15L7 14L8 14L8 13L9 13L9 16L10 16L10 15L11 15L11 13L12 13L12 16L13 16L13 15L14 15L14 18L12 18L12 17L11 17L11 18L9 18L9 17L8 17L8 19L9 19L9 20L8 20L8 25L9 25L9 23L10 23L10 25L11 25L11 24L12 24L12 25L16 25L16 24L17 24L17 25L18 25L18 24L22 24L22 25L25 25L25 24L24 24L24 23L25 23L25 21L23 21L23 22L22 22L22 23L21 23L21 21L22 21L22 19L25 19L25 15L23 15L23 14L22 14L22 15L23 15L23 16L24 16L24 18L22 18L22 19L21 19L21 17L22 17L22 16L18 16L18 15L19 15L19 14L20 14L20 15L21 15L21 13L22 13L22 12L18 12L18 11L19 11L19 10L20 10L20 11L21 11L21 9L22 9L22 8L21 8L21 9L20 9L20 8L19 8L19 10L18 10L18 8L15 8L15 4L16 4L16 5L17 5L17 4L16 4L16 3L17 3L17 2L16 2L16 1L17 1L17 0L16 0L16 1L15 1L15 0L14 0L14 1L11 1L11 2L10 2L10 0ZM12 2L12 4L13 4L13 5L14 5L14 4L15 4L15 3L16 3L16 2L14 2L14 3L13 3L13 2ZM10 3L10 4L11 4L11 3ZM8 5L8 7L9 7L9 5ZM16 6L16 7L17 7L17 6ZM23 8L23 9L24 9L24 10L25 10L25 9L24 9L24 8ZM6 9L6 10L8 10L8 11L9 11L9 9ZM17 10L17 11L18 11L18 10ZM22 10L22 11L23 11L23 10ZM12 11L12 12L13 12L13 14L15 14L15 16L16 16L16 15L18 15L18 14L17 14L17 13L18 13L18 12L17 12L17 13L16 13L16 14L15 14L15 12L16 12L16 11L14 11L14 12L13 12L13 11ZM0 12L0 17L1 17L1 13L2 13L2 12ZM10 12L10 13L11 13L11 12ZM23 12L23 13L24 13L24 14L25 14L25 12ZM2 14L2 15L3 15L3 14ZM2 16L2 17L3 17L3 16ZM17 17L17 20L20 20L20 17ZM15 18L15 19L12 19L12 20L11 20L11 19L10 19L10 21L9 21L9 22L10 22L10 21L11 21L11 22L12 22L12 21L13 21L13 22L14 22L14 24L15 24L15 23L17 23L17 24L18 24L18 23L20 23L20 21L19 21L19 22L18 22L18 21L17 21L17 22L15 22L15 19L16 19L16 18ZM18 18L18 19L19 19L19 18ZM13 20L13 21L14 21L14 20ZM23 22L23 23L22 23L22 24L23 24L23 23L24 23L24 22ZM12 23L12 24L13 24L13 23ZM0 0L7 0L7 7L0 7ZM1 1L1 6L6 6L6 1ZM2 2L5 2L5 5L2 5ZM18 0L25 0L25 7L18 7ZM19 1L19 6L24 6L24 1ZM20 2L23 2L23 5L20 5ZM0 18L7 18L7 25L0 25ZM1 19L1 24L6 24L6 19ZM2 20L5 20L5 23L2 23Z" fill="#000000"/></g></g></svg>
